<svg width="24" height="24" viewBox="0 0 24 24" fill="none" xmlns="http://www.w3.org/2000/svg">
<path d="M10.1251 21.9997C9.72082 22.0017 9.35715 21.7528 9.2134 21.3747L7.65716 17.328C7.59349 17.1631 7.46302 17.0327 7.29818 16.969L3.25016 15.4116C2.74665 15.2183 2.49509 14.6534 2.68845 14.1499C2.78767 13.8913 2.99196 13.6874 3.25016 13.5882L7.29701 12.032C7.46185 11.9683 7.59232 11.8379 7.65599 11.673L9.2134 7.62509C9.40676 7.12159 9.9716 6.87003 10.4751 7.06339C10.7337 7.1626 10.9376 7.3669 11.0368 7.62509L12.5931 11.6719C12.6567 11.8367 12.7872 11.9672 12.952 12.0308L16.9754 13.5788C17.3684 13.7245 17.6282 14.1011 17.6251 14.5202C17.6188 14.9175 17.3712 15.2706 17.0001 15.4116L12.9532 16.9678C12.7884 17.0315 12.6579 17.162 12.5942 17.3268L11.0368 21.3747C10.8931 21.7528 10.5298 22.0017 10.1251 21.9997Z" fill="white"/>
<path d="M5.43759 8.87473C5.20048 8.87473 4.98798 8.72864 4.90283 8.50755L4.24424 6.79509C4.21533 6.71931 4.15557 6.65955 4.07979 6.63064L2.3673 5.97207C2.07199 5.8584 1.92473 5.52677 2.0384 5.23146C2.0966 5.08029 2.21613 4.96076 2.3673 4.90256L4.07979 4.24399C4.15557 4.21508 4.21533 4.15532 4.24424 4.07954L4.89697 2.38232C4.97197 2.17881 5.15322 2.03311 5.36845 2.0042C5.62899 1.97256 5.87782 2.12217 5.97235 2.36708L6.63094 4.07954C6.65985 4.15532 6.71961 4.21508 6.79539 4.24399L8.50788 4.90256C8.80319 5.01623 8.95045 5.34786 8.83678 5.64317C8.77858 5.79434 8.65905 5.91387 8.50788 5.97207L6.79539 6.63064C6.71961 6.65955 6.65985 6.71931 6.63094 6.79509L5.97235 8.50755C5.8872 8.72864 5.6747 8.87473 5.43759 8.87473Z" fill="white"/>
<path d="M17.6254 12C17.3668 12 17.1347 11.8406 17.0422 11.5992L16.15 9.28014C16.1183 9.19733 16.0531 9.1321 15.9703 9.10046L13.6512 8.20829C13.3289 8.08408 13.1688 7.72237 13.2926 7.4005C13.3563 7.23566 13.4863 7.10559 13.6512 7.04192L15.9703 6.14975C16.0531 6.11811 16.1183 6.05288 16.15 5.97007L17.0355 3.6674C17.118 3.44553 17.3156 3.28694 17.55 3.25452C17.8344 3.22014 18.1058 3.38342 18.2086 3.65099L19.1007 5.97007C19.1324 6.05288 19.1976 6.11811 19.2804 6.14975L21.5996 7.04192C21.9218 7.16613 22.082 7.52784 21.9581 7.84971C21.8945 8.01455 21.7644 8.14462 21.5996 8.20829L19.2804 9.10046C19.1976 9.1321 19.1324 9.19733 19.1007 9.28014L18.2086 11.5992C18.1156 11.8406 17.884 12 17.6254 12Z" fill="white"/>
</svg>
