<svg xmlns="http://www.w3.org/2000/svg" viewBox="0 0 24 24" fill="#202e44" fill-rule="evenodd" xmlns:v="https://vecta.io/nano"><path d="M12.278 2.441c-2.037-.588-4.518-.588-6.555 0-1.022.295-1.915.733-2.573 1.303S2.001 5.083 2.001 6v10c0 .785.36 1.398.861 1.861.47.434 1.093.766 1.731 1.052a1 1 0 1 0 .818-1.825c-.59-.264-.968-.489-1.19-.695-.192-.177-.218-.289-.218-.392V13.63l.591.284a1 1 0 1 0 .818-1.825c-.59-.264-.968-.489-1.19-.695-.192-.177-.218-.289-.218-.392V8.85c.508.289 1.091.526 1.723.708 2.037.588 4.518.588 6.555 0 1.022-.295 1.915-.733 2.573-1.303S16.001 6.917 16.001 6s-.492-1.687-1.149-2.256-1.551-1.008-2.573-1.303zM4.459 6.744C4.081 6.416 4 6.155 4 6s.08-.416.459-.744.985-.652 1.819-.893a10.4 10.4 0 0 1 5.445 0c.834.241 1.441.566 1.819.893s.459.589.459.744-.08.416-.459.744-.985.652-1.819.893a10.4 10.4 0 0 1-5.445 0c-.834-.241-1.441-.566-1.819-.893zm5.851 4.24C11.562 10.358 13.221 10 15 10s3.438.358 4.69.984C20.882 11.58 22 12.589 22 14v4c0 1.411-1.118 2.419-2.31 3.015-1.252.626-2.911.985-4.69.985s-3.438-.358-4.69-.985C9.118 20.419 8 19.411 8 18v-4c0-1.411 1.118-2.42 2.31-3.016zM20 18v-1.15l-.31.166c-1.252.626-2.911.984-4.69.984s-3.438-.358-4.69-.984L10 16.85V18c0 .245.225.737 1.204 1.227.92.46 2.26.773 3.796.773s2.876-.314 3.795-.773C19.775 18.737 20 18.245 20 18zm-8.795-2.773C10.225 14.737 10 14.246 10 14s.225-.737 1.204-1.227c.92-.46 2.26-.773 3.796-.773s2.876.313 3.796.773c.979.49 1.204.981 1.204 1.227s-.225.737-1.204 1.227c-.92.46-2.26.773-3.796.773s-2.876-.313-3.796-.773z"/></svg>