<svg xmlns="http://www.w3.org/2000/svg" viewBox="0 0 24 24" fill="#202e44" xmlns:v="https://vecta.io/nano"><path d="M4.879 2.879a3 3 0 1 1 4.243 4.243 3 3 0 1 1-4.243-4.243zM7 4a1 1 0 1 0 0 2 1 1 0 1 0 0-2zm7.879-1.121a3 3 0 1 1 4.243 4.243 3 3 0 1 1-4.243-4.243zM17 4a1 1 0 1 0 0 2 1 1 0 1 0 0-2zm-5 6a3 3 0 1 0 0 6 3 3 0 1 0 0-6zm-.707 2.293a1 1 0 0 1 1.414 1.414 1 1 0 0 1-1.414-1.414z" fill-rule="evenodd"/><path d="M9.293 19.293A1 1 0 0 1 10 19h4a1 1 0 0 1 1 1v1a1 1 0 1 0 2 0v-1a3 3 0 0 0-3-3h-4a3 3 0 0 0-3 3v1a1 1 0 1 0 2 0v-1a1 1 0 0 1 .293-.707zM17 9a1 1 0 1 0 0 2h2a1 1 0 0 1 1 1v1a1 1 0 1 0 2 0v-1a3 3 0 0 0-3-3h-2zM4.293 11.293A1 1 0 0 1 5 11h2a1 1 0 1 0 0-2H5a3 3 0 0 0-3 3v1a1 1 0 1 0 2 0v-1a1 1 0 0 1 .293-.707z"/></svg>