<svg xmlns="http://www.w3.org/2000/svg" fill="none" viewBox="0 0 24 24" xmlns:v="https://vecta.io/nano"><path d="M7 4a1 1 0 0 0-1 1v14.132l1.445-.964a1 1 0 0 1 1.262.125L10 19.586l1.293-1.293a1 1 0 0 1 1.414 0L14 19.586l1.293-1.293a1 1 0 0 1 1.262-.125l1.445.964V5a1 1 0 0 0-1-1H7zM4.879 2.879A3 3 0 0 1 7 2h10a3 3 0 0 1 3 3v16a1 1 0 0 1-1.555.832l-2.318-1.545-1.42 1.42a1 1 0 0 1-1.414 0L12 20.414l-1.293 1.293a1 1 0 0 1-1.414 0l-1.42-1.42-2.318 1.545A1 1 0 0 1 4 21V5a3 3 0 0 1 .879-2.121zM8 7a1 1 0 0 1 1-1h6a1 1 0 1 1 0 2H9a1 1 0 0 1-1-1zm0 4a1 1 0 0 1 1-1h6a1 1 0 1 1 0 2H9a1 1 0 0 1-1-1zm4 4a1 1 0 0 1 1-1h2a1 1 0 1 1 0 2h-2a1 1 0 0 1-1-1z" fill="#202e44" fill-rule="evenodd"/></svg>