<svg width="80" height="80" viewBox="0 0 80 80" fill="none" xmlns="http://www.w3.org/2000/svg">
<rect width="80" height="80" fill="white"/>
<path fill-rule="evenodd" clip-rule="evenodd" d="M12.4269 35.1924C21.3245 30.1783 12.7274 13.9979 29.2225 10.6144C45.2924 7.31837 48.6597 24.7762 57.3326 26.5329C66.288 28.3472 78.0186 33.7587 76.9163 50.3356C75.9318 65.1349 62.073 70.3386 53.1547 69.7185C44.2364 69.0986 42.1044 63.1343 35.2801 62.7614C28.4559 62.3887 12.9238 70.9622 6.33818 59.1578C6.33818 59.1578 -1.9238 43.2796 12.4269 35.1924Z" fill="#DCF3FF"/>
<path fill-rule="evenodd" clip-rule="evenodd" d="M44.0919 72.6376C57.3231 71.9558 67.4135 59.477 66.6293 44.7655C65.8452 30.054 54.4835 18.6807 41.2523 19.3625C28.0211 20.0443 17.9308 32.523 18.7149 47.2345C19.499 61.946 30.8607 73.3193 44.0919 72.6376Z" fill="#003CE5"/>
<path fill-rule="evenodd" clip-rule="evenodd" d="M41.3062 71.4259C53.0656 70.8027 62.0113 58.9667 61.287 44.9897C60.5627 31.0126 50.4427 20.1872 38.6833 20.8105C26.9239 21.4338 17.9781 33.2697 18.7024 47.2467C19.4267 61.2238 29.5468 72.0492 41.3062 71.4259Z" fill="#005CFF"/>
<path fill-rule="evenodd" clip-rule="evenodd" d="M40.1917 66.1681C49.2549 65.7043 56.1327 56.5812 55.5536 45.7911C54.9745 35.001 47.1579 26.6299 38.0946 27.0938C29.0314 27.5576 22.1537 36.6807 22.7328 47.4708C23.3119 58.2609 31.1285 66.6319 40.1917 66.1681Z" fill="#06A0FF"/>
<path fill-rule="evenodd" clip-rule="evenodd" d="M42.0407 65.2046C51.0481 64.277 57.4143 54.8026 56.2601 44.0429C55.1059 33.2832 46.8683 25.3127 37.8609 26.2403C28.8535 27.1679 22.4873 36.6423 23.6415 47.402C24.7957 58.1617 33.0333 66.1322 42.0407 65.2046Z" fill="white"/>
<path fill-rule="evenodd" clip-rule="evenodd" d="M38.9665 59.7852C39.6989 59.7082 40.3549 60.2395 40.4319 60.9719C40.5089 61.7042 39.9776 62.3603 39.2453 62.4373C38.5129 62.5142 37.8568 61.9829 37.7799 61.2506C37.7029 60.5183 38.2342 59.8622 38.9665 59.7852ZM51.411 46.4519C52.1433 46.3749 52.7994 46.9062 52.8764 47.6386C52.9533 48.3709 52.4221 49.027 51.6897 49.104C50.9574 49.1809 50.3013 48.6497 50.2243 47.9173C50.1473 47.185 50.6786 46.5289 51.411 46.4519ZM26.0776 43.7852C26.81 43.7082 27.466 44.2395 27.543 44.9719C27.62 45.7042 27.0887 46.3603 26.3564 46.4373C25.624 46.5142 24.9679 45.983 24.891 45.2506C24.814 44.5183 25.3453 43.8622 26.0776 43.7852ZM38.9665 28.2296C39.6989 28.1527 40.3549 28.684 40.4319 29.4163C40.5089 30.1486 39.9776 30.8047 39.2453 30.8817C38.5129 30.9587 37.8568 30.4274 37.7799 29.695C37.7029 28.9627 38.2342 28.3066 38.9665 28.2296Z" fill="#005CFF"/>
<path fill-rule="evenodd" clip-rule="evenodd" d="M38.9616 33.3151C39.5485 33.3221 40.0238 33.7829 40.0577 34.3599L40.0595 34.4393L39.9444 44.2369C40.6858 44.5852 41.2503 45.2675 41.424 46.1107L47.1319 46.6573C47.7428 46.7157 48.1906 47.2583 48.1322 47.8691C48.0762 48.4545 47.5756 48.8902 46.9964 48.8741L46.9204 48.8694L40.912 48.2962C40.4823 48.8448 39.8392 49.2254 39.0914 49.304C37.6267 49.4579 36.3145 48.3953 36.1606 46.9307C36.037 45.7546 36.6977 44.6768 37.7211 44.2181L37.8375 34.4132C37.8447 33.7995 38.348 33.308 38.9616 33.3151Z" fill="#FF7800"/>
<path opacity="0.3" fill-rule="evenodd" clip-rule="evenodd" d="M20.6666 35.3333L28.6666 25.6666C29.4245 24.3431 22.6656 24.3403 23.4274 25.6616L33.9951 36.3333C34.9951 38.3333 33.5736 39.9529 32.0541 39.9544L19.2 40C19.2 40 19.6666 37.3333 20.6666 35.3333Z" fill="#0A1B64"/>
<path fill-rule="evenodd" clip-rule="evenodd" d="M9.46236 32.4092L20.4924 14.5009C21.3772 12.9557 23.6046 12.9524 24.4939 14.495L35.5365 32.4092C36.704 34.7442 35.0445 36.6351 33.2705 36.6368L11.7771 36.6667C10.0023 36.6682 8.29486 34.7442 9.46236 32.4092Z" fill="#B02B00"/>
<path fill-rule="evenodd" clip-rule="evenodd" d="M9.77121 31.6545L20.4924 12.9442C21.3773 11.399 23.6046 11.3958 24.494 12.9384L35.2663 31.6198C36.1527 33.1576 35.0445 35.0784 33.2705 35.0802L11.7772 35.11C10.0023 35.1116 8.88899 33.1944 9.77121 31.6545Z" fill="#FF7800"/>
<path fill-rule="evenodd" clip-rule="evenodd" d="M22.4991 17.1224C22.9822 17.1218 23.3797 17.4899 23.4254 17.9611L23.4298 18.0506L23.4405 26.244C23.4412 26.7573 23.0256 27.174 22.5123 27.1747C22.0292 27.1753 21.6317 26.8072 21.586 26.336L21.5817 26.2465L21.5709 18.0531C21.5702 17.5397 21.9858 17.1231 22.4991 17.1224Z" fill="white"/>
<path fill-rule="evenodd" clip-rule="evenodd" d="M23.8225 30.3008C23.8235 31.0221 23.2399 31.6075 22.5189 31.609C21.7973 31.6094 21.2115 31.0252 21.2111 30.3036C21.2098 29.5836 21.7933 28.9986 22.5148 28.9968C23.2359 28.9949 23.8221 29.5791 23.8225 30.3008Z" fill="white"/>
<path fill-rule="evenodd" clip-rule="evenodd" d="M28.3676 5C28.9049 5 29.3405 5.43559 29.3405 5.97292V9.86459C29.3405 10.4019 28.9049 10.8375 28.3676 10.8375C27.8302 10.8375 27.3947 10.4019 27.3947 9.86459V5.97292C27.3947 5.43559 27.8302 5 28.3676 5Z" fill="#EF3300"/>
<path fill-rule="evenodd" clip-rule="evenodd" d="M43.7957 14.7151C44.0722 15.1759 43.9227 15.7735 43.462 16.0499L38.5974 18.9687C38.1367 19.2452 37.539 19.0957 37.2626 18.635C36.9861 18.1742 37.1355 17.5766 37.5963 17.3002L42.4609 14.3814C42.9216 14.105 43.5192 14.2544 43.7957 14.7151Z" fill="#EF3300"/>
<path fill-rule="evenodd" clip-rule="evenodd" d="M12.9395 14.7151C12.6631 15.1759 12.8125 15.7735 13.2732 16.0499L18.1378 18.9687C18.5986 19.2452 19.1962 19.0957 19.4727 18.635C19.7491 18.1742 19.5997 17.5766 19.1389 17.3002L14.2744 14.3814C13.8136 14.105 13.216 14.2544 12.9395 14.7151Z" fill="#EF3300"/>
</svg>
