<svg xmlns="http://www.w3.org/2000/svg" width="204" height="80" fill="none" xmlns:v="https://vecta.io/nano"><g fill="#000"><path d="M33.82 8.146L35.099 0H1.279L0 8.146h11.899L5.331 49.684h9.916l6.589-41.539H33.82z"/><path d="M31.386 30.685c2.175-13.775 7.335-19.49 19.81-19.49 10.726 0 13.988 4.563 13.988 12.133 0 2.004-.235 4.222-.618 6.632-.149 1.002-.341 2.026-.597 3.049-4.35.789-12.752 1.621-17.912 1.898l-6.184.32-.006.067a17.14 17.14 0 0 0-.08 1.383c0 4.712 2.836 5.928 7.719 5.928 5.032 0 9.681-.512 13.562-1.002l-.341 7.143c-4.03.661-9.297 1.45-16.505 1.45-10.108 0-13.391-5.31-13.391-13.199 0-1.962.213-4.073.555-6.312zm9.255-1.94l6.44-.32c2.474-.128 6.248-.448 8.487-.746.128-.426.256-1.088.32-1.514.128-.853.213-1.642.213-2.367 0-3.476-1.684-5.352-6.056-5.352-6.845 0-8.466 4.35-9.404 10.299z" fill-rule="evenodd"/><path d="M83.939 34.509c2.309.674 4.451 1.299 4.451 3.746 0 .235-.021.49-.064.768-.581 3.654-5.083 3.649-7.918 3.647h-.227c-2.857 0-7.25-.618-9.958-1.151l-2.004 7.037c3.689 1.045 8.785 1.642 13.029 1.642 8.21 0 15.055-2.495 16.483-11.494.149-.938.213-1.813.213-2.58 0-5.801-3.951-7.241-8.699-8.972l-1.004-.368c-.441-.16-.901-.309-1.363-.458-2.558-.827-5.169-1.671-4.735-4.489.512-3.241 4.969-3.262 7.911-3.262 3.348 0 6.418.512 9.276 1.109l1.983-6.909c-4.478-1.088-8.103-1.578-13.412-1.578-7.442 0-13.69 2.473-15.055 11.046-.128.81-.192 1.557-.192 2.26 0 6.29 5.032 7.975 10.001 9.617.426.14.859.266 1.285.391z"/><path d="M119.018 50.196c-10.001 0-14.223-3.518-14.223-12.517 0-2.047.213-4.371.639-6.994 2.239-14.159 7.506-19.49 19.768-19.49 10 0 14.201 3.668 14.201 12.624 0 2.026-.213 4.286-.618 6.866-2.218 14.031-7.506 19.511-19.767 19.511zm-4.926-13.285c0 4.393 1.684 5.651 5.971 5.651 5.885 0 7.975-2.644 9.446-11.877.384-2.431.597-4.393.597-5.992 0-4.414-1.663-5.885-5.971-5.885-5.864 0-7.889 2.388-9.403 11.877-.406 2.559-.64 4.606-.64 6.227z" fill-rule="evenodd"/><path d="M143.83 49.684h9.212l3.903-24.586 1.023-5.096c1.599-.768 4.201-1.173 6.376-1.173.938 0 1.898.043 2.665.149l1.941-7.591c-1.152-.128-2.41-.192-3.732-.192-5.054 0-10.96 1.024-15.545 3.518a82.81 82.81 0 0 0-1.45 7.207l-4.393 27.764z"/><path d="M200.569 39.47l2.538-16.057c.149-.981.235-1.898.235-2.751 0-7.549-6.014-9.468-13.498-9.468-5.459 0-10.79.768-14.82 1.45l-.342 7.037c3.817-.49 8.786-.981 13.285-.981 4.158 0 5.992 1.471 5.992 4.649a10.14 10.14 0 0 1-.149 1.706l-.353.015c-4.01.165-7.864.324-11.759.945-7.591 1.194-11.131 5.352-12.197 12.069-.171 1.066-.256 2.047-.256 2.964 0 6.077 3.774 9.148 12.687 9.148 6.717 0 12.454-.96 17.187-3.518a82.76 82.76 0 0 0 1.45-7.208zm-21.92-1.514c.639-3.988 2.047-5.075 5.437-5.864 2.333-.537 5.085-.672 7.612-.796h.004l1.127-.057-.896 5.651c-.277 1.706-.639 3.561-1.045 5.096-2.153.874-4.669 1.024-6.738 1.024-3.561 0-5.608-.81-5.608-3.753a7.06 7.06 0 0 1 .107-1.301z" fill-rule="evenodd"/></g><g fill-rule="evenodd"><path d="M201.682 61.177h-15.023-12.638-13.19c-2.413 0-4.182 1.786-4.651 4.112l-2.641 13.107c0 .883.742 1.599 1.659 1.605h15.445 12.638 12.769c2.412 0 4.181-1.786 4.651-4.112l2.641-13.107c0-.883-.742-1.599-1.66-1.605z" fill="#002a8d"/><path d="M170.232 72.865s-.062.28.21.303l.437.004c.981 0 1.878-.342 1.899-1.184.018-.745-.68-.97-1.522-.97h-.594l-.43 1.846zm4.45-.835c0 1.116-.986 2.587-4.396 2.406a5.11 5.11 0 0 1-1.006-.137c-1.284-.3-.832-1.74-.832-1.74l1.306-5.57a15.6 15.6 0 0 1 2.355-.179c1.824 0 3.032.618 3.032 1.775 0 1.083-1.101 1.672-1.934 1.805.661.047 1.475.531 1.475 1.64zm-3.335-3.926l-.329 1.435s-.082.307.197.307h.385c.989 0 1.674-.368 1.692-1.017.014-.535-.471-.767-1.16-.767-.315 0-.646.02-.785.041zm11.674 6.352h-1.083l1.717-7.426c.709-.158 1.457-.189 2.322-.182 2.113.008 3.081.776 3.081 2.114 0 1.226-1.016 3.03-3.938 3.03-.299 0-.556-.032-.742-.044l-.38 1.641c-.178.764-.701.868-.977.868zm2.348-6.298l-.477 2.07s-.154.44.395.44l.223.005c1.228-.009 1.858-.779 1.858-1.576 0-.784-.563-.977-1.242-.977l-.757.037zm-7.716 3.018c0 1.172.708 1.922 1.923 1.922.501 0 1.048-.081 1.785-.6l-.289 1.249s-.08.414-.559.575c-.389.14-.8.204-1.422.204-1.733 0-3.425-.82-3.425-3.25 0-2.273 1.516-4.583 4.442-4.583.574 0 .979.078 1.499.239.801.248.899.665.846.915-.055.256-.244.871-.244.871-.504-.433-1.382-.554-1.87-.554-1.87 0-2.686 1.805-2.686 3.013zm-12.357-.97a6.19 6.19 0 0 0-1.853-1.328l-.378-.186c.189-.408.437-.699.437-.699.035-.044.788-.894 1.45-.596.723.313.797 1.748.344 2.809zm26.865 0a6.15 6.15 0 0 0-1.853-1.328l-.377-.186c.189-.408.437-.699.437-.699.035-.044.788-.894 1.45-.596.723.313.797 1.748.343 2.809z" fill="#fff"/><path d="M167.539 71.291c-.705 1.082-2.628 2.316-3.173 2.501-1.06.426-1.778-.364-1.839-.447-.198-.245-.246-.296-.341-.475-.019.03 2.034-.888 2.77-2.076.797-1.02.866-3.02-.004-3.397.263.127.883.469 1.443.948.558.455 1.04 1.051 1.03 1.043.059.077.758.913.114 1.902zm26.752-1.902c.059.077.758.913.114 1.902-.705 1.082-2.628 2.316-3.173 2.501-1.06.426-1.778-.364-1.839-.447-.198-.245-.246-.296-.342-.475-.018.03 2.035-.888 2.771-2.076.797-1.02.866-3.02-.004-3.397.263.127.883.469 1.443.948.558.455 1.04 1.051 1.03 1.043z" fill="#ff7800"/><path d="M45.662 74.106a9.62 9.62 0 0 0 2.105-.216l-.13-1.044a11.21 11.21 0 0 1-1.648.128c-2.182 0-2.267-1.142-2.27-2.731v-.155c0-1.663.018-2.886 2.27-2.886.569 0 1.126.051 1.648.128l.13-1.044a9.62 9.62 0 0 0-2.105-.216c-2.756 0-3.44 1.22-3.44 4.018s.68 4.018 3.44 4.018zm6.06 0c2.098 0 2.853-.875 2.853-3.092s-.756-3.089-2.853-3.089-2.853.838-2.853 3.089.756 3.092 2.853 3.092zm0-1.02c-1.159 0-1.475-.409-1.475-2.071s.317-2.068 1.475-2.068 1.483.477 1.483 2.068-.324 2.071-1.483 2.071zm5.732.939V69.95l.039-.808c.277-.135.759-.203 1.169-.203 1.313 0 1.493.405 1.493 1.365v3.72h1.367v-3.859c0-1.25-.23-2.24-2.486-2.24-1.213 0-2.166.193-2.893.527l-.054 1.105v4.467h1.364zm11.399.081c1.234 0 2.073-.115 2.767-.22l-.115-.956-2.299.156c-.993 0-1.637-.27-1.709-1.429l1.13-.047c.885-.037 2.415-.179 3.149-.301a4.71 4.71 0 0 0 .018-.446c0-1.794-.493-2.936-2.799-2.936-2.134 0-2.853.906-2.853 3.089 0 1.784.565 3.092 2.713 3.092zm-1.392-3.325c0-1.088.183-1.889 1.533-1.889 1.065 0 1.425.5 1.425 1.416a2.44 2.44 0 0 1-.014.28l-1.655.135-1.288.057zm6.329 3.511l1.191-.531a1.95 1.95 0 0 1-.468-1.352v-6.728h-1.371v6.785c0 .835.227 1.375.648 1.825zm6.995-.267v-4.068l.04-.808c.277-.135.759-.203 1.169-.203l.489.024.108-1.02-.597-.024c-.838 0-1.803.149-2.519.527l-.054 1.105v4.467h1.364zm5.376.081a17.12 17.12 0 0 0 2.767-.22l-.115-.956-2.299.156c-.993 0-1.637-.27-1.709-1.429l1.13-.047c.885-.037 2.414-.179 3.148-.301a4.71 4.71 0 0 0 .018-.446c0-1.794-.493-2.936-2.799-2.936-2.134 0-2.854.906-2.854 3.089 0 1.784.565 3.092 2.713 3.092zm-1.393-3.325c0-1.088.184-1.889 1.533-1.889 1.065 0 1.425.5 1.425 1.416a2.44 2.44 0 0 1-.014.28l-1.655.135-1.288.057zm7.758 3.325c1.403 0 2.497-.385 2.497-1.774 0-1.325-.885-1.517-1.979-1.865-.533-.169-1.31-.28-1.31-.912 0-.615.925-.615 1.443-.615.565 0 1.101.074 1.601.162l.13-.943c-.766-.162-1.393-.233-2.278-.233-1.27 0-2.26.379-2.26 1.7 0 1.294.979 1.541 2.008 1.835l.113.031.225.059c.483.126.918.269.918.829 0 .631-.773.688-1.302.692h-.184c-.504 0-1.213-.081-1.706-.166l-.13.963c.666.156 1.526.237 2.213.237zm5.282 2.136V73.94a6.52 6.52 0 0 0 1.4.166c1.954 0 2.8-.767 2.8-3.088 0-2.359-.885-3.092-2.99-3.092-.838 0-1.803.149-2.519.527l-.054 1.105v6.684h1.364zm1.08-3.129a3.91 3.91 0 0 1-1.08-.169v-3.021l.04-.808c.277-.135.759-.203 1.169-.203 1.471 0 1.603.922 1.612 1.978l.001.127c0 1.213-.033 2.095-1.742 2.095zm6.61.993c1.195 0 2.148-.149 2.864-.527.036-.365.054-.71.054-1.105v-2.653c0-1.534-1.162-1.896-2.572-1.896-.94 0-1.778.112-2.469.22l.112.939 2.227-.152c.975 0 1.364.419 1.364 1.254l-2.271.159c-1.238.176-1.723.835-1.723 1.885 0 1.237.68 1.875 2.414 1.875zm.202-.96c-.821 0-1.267-.183-1.267-.936 0-.703.238-.895.903-1.041.522-.115 1.177-.125 1.742-.145v1.108l-.04.808c-.403.176-.921.206-1.338.206zm4.919 1.145l1.191-.531a1.95 1.95 0 0 1-.468-1.352V65.68h-1.371v6.785c0 .835.227 1.375.648 1.825zm5.138-.186c.838 0 1.803-.149 2.519-.527.036-.365.054-.71.054-1.105v-6.792h-1.364v2.409a6.54 6.54 0 0 0-1.4-.166c-1.954 0-2.799.767-2.799 3.089 0 2.359.885 3.092 2.99 3.092zm0-.987c-1.412 0-1.591-.849-1.61-1.852l-.002-.253c0-1.213.032-2.095 1.741-2.095a3.91 3.91 0 0 1 1.08.169v3.021l-.04.808c-.277.135-.759.203-1.169.203zm6.945.987c2.097 0 2.853-.875 2.853-3.092s-.756-3.089-2.853-3.089-2.854.838-2.854 3.089.756 3.092 2.854 3.092zm0-1.02c-1.159 0-1.476-.409-1.476-2.071s.317-2.068 1.476-2.068 1.482.477 1.482 2.068-.324 2.071-1.482 2.071zm10.165 1.02c.838 0 1.803-.149 2.519-.527.036-.365.054-.71.054-1.105v-6.792h-1.364v2.409a6.54 6.54 0 0 0-1.4-.166c-1.954 0-2.799.767-2.799 3.089 0 2.359.885 3.092 2.99 3.092zm0-.987c-1.412 0-1.591-.849-1.61-1.852l-.002-.253c0-1.213.032-2.095 1.741-2.095a3.91 3.91 0 0 1 1.08.169v3.021l-.04.808c-.277.135-.759.203-1.169.203zm6.794.987c1.234 0 2.072-.115 2.767-.22l-.115-.956-2.3.156c-.993 0-1.637-.27-1.709-1.429l1.13-.047c.885-.037 2.414-.179 3.148-.301a4.52 4.52 0 0 0 .018-.446c0-1.794-.493-2.936-2.799-2.936-2.134 0-2.854.906-2.854 3.089 0 1.784.565 3.092 2.714 3.092zm-1.393-3.325c0-1.088.184-1.889 1.533-1.889 1.065 0 1.425.5 1.425 1.416 0 .078-.004.203-.015.28l-1.655.135-1.288.057zm6.329 3.511l1.191-.531c-.334-.416-.467-.797-.467-1.352V65.68h-1.371v6.785c0 .835.226 1.375.647 1.825z" fill="#000"/></g></svg>