<svg xmlns="http://www.w3.org/2000/svg" viewBox="0 0 24 24" fill="#202e44" xmlns:v="https://vecta.io/nano"><path d="M12 15a1 1 0 0 1 1 1v.01a1 1 0 1 1-2 0V16a1 1 0 0 1 1-1zm1.369-6.672a2.98 2.98 0 0 0-3.632.727 1 1 0 0 0 1.527 1.292.98.98 0 0 1 1.195-.239l.002.001A1 1 0 0 1 12.004 12a1 1 0 1 0-.006 2 3 3 0 0 0 1.372-5.672z"/><path d="M4.929 4.929a10 10 0 0 1 14.142 0 10 10 0 0 1 2.168 10.898 10 10 0 0 1-5.412 5.412 10 10 0 0 1-7.654 0 10 10 0 0 1-5.412-5.412A10 10 0 0 1 4.929 4.929zM12 4a8 8 0 0 0-8 8 8 8 0 0 0 2.343 5.657A8 8 0 0 0 12 20a8 8 0 0 0 5.657-2.343A8 8 0 0 0 20 12a8 8 0 0 0-8-8z" fill-rule="evenodd"/></svg>