<svg xmlns="http://www.w3.org/2000/svg" viewBox="0 0 24 24" fill="#202e44" xmlns:v="https://vecta.io/nano"><g fill-rule="evenodd"><path d="M10 16a1 1 0 0 1 1-1h10a1 1 0 1 1 0 2H11a1 1 0 0 1-1-1z"/><path d="M10.293 15.293a1 1 0 0 1 1.414 0l4 4a1 1 0 0 1-1.414 1.414l-4-4a1 1 0 0 1 0-1.414z"/><path d="M15.707 11.293a1 1 0 0 1 0 1.414l-4 4a1 1 0 0 1-1.414-1.414l4-4a1 1 0 0 1 1.414 0z"/></g><path d="M9.707 3.293a1 1 0 0 0-1.414 1.414L10.586 7H3a1 1 0 1 0 0 2h7.586l-2.293 2.293a1 1 0 0 0 1.414 1.414l3.999-3.999c.391-.398.389-1.026.001-1.415l-4-4z"/></svg>