<svg xmlns="http://www.w3.org/2000/svg" viewBox="0 0 24 24" fill="#202e44" xmlns:v="https://vecta.io/nano"><path d="M12 22a2.69 2.69 0 0 1-2.65-2.08c-.09-.39-.49-.63-.87-.53a.95.95 0 0 0-.21.09c-1.09.67-2.44.51-3.34-.4-.91-.91-1.07-2.25-.4-3.34a.73.73 0 0 0-.24-1c-.06-.04-.13-.07-.21-.08A2.69 2.69 0 0 1 2 12.01c0-1.28.84-2.34 2.08-2.65a.72.72 0 0 0 .45-.33.76.76 0 0 0 .09-.55.95.95 0 0 0-.09-.21c-.67-1.1-.51-2.44.4-3.34.91-.91 2.25-1.07 3.34-.4.2.12.44.14.65.05s.37-.27.43-.5A2.69 2.69 0 0 1 12 2c1.28 0 2.34.84 2.65 2.08a.72.72 0 0 0 .33.45.76.76 0 0 0 .55.09.95.95 0 0 0 .21-.09c1.09-.67 2.44-.51 3.34.4.91.91 1.07 2.25.4 3.34a.73.73 0 0 0 .24 1c.06.04.13.07.21.08A2.69 2.69 0 0 1 22.01 12a2.69 2.69 0 0 1-2.08 2.65.72.72 0 0 0-.45.33.76.76 0 0 0-.09.55.95.95 0 0 0 .09.21c.67 1.09.51 2.44-.4 3.34-.91.91-2.25 1.07-3.34.4a.73.73 0 0 0-1 .24c-.04.06-.07.13-.08.21a2.69 2.69 0 0 1-2.65 2.08L12 22zm-3.35-4.64c1.23 0 2.35.84 2.65 2.08.12.51.57.55.7.55s.58-.04.7-.55a2.73 2.73 0 0 1 4.06-1.68c.45.27.79-.01.89-.11.09-.09.38-.44.11-.89-.15-.24-.26-.5-.32-.78-.17-.71-.06-1.44.32-2.06a2.72 2.72 0 0 1 1.68-1.23c.51-.12.55-.57.55-.7s-.04-.58-.55-.7a2.73 2.73 0 0 1-1.68-4.06c.27-.45-.01-.79-.11-.89s-.44-.38-.89-.11c-.24.15-.5.26-.78.32-1.46.36-2.94-.55-3.29-2.01-.12-.51-.57-.55-.7-.55s-.58.04-.7.55c-.21.85-.79 1.54-1.6 1.87a2.68 2.68 0 0 1-2.46-.19c-.45-.27-.8.01-.89.11-.09.09-.38.44-.11.89.15.24.25.5.32.78.35 1.46-.55 2.94-2.01 3.29-.51.12-.55.57-.55.7s.04.58.55.7a2.73 2.73 0 0 1 1.68 4.06c-.27.45.01.79.11.89s.44.38.89.11c.24-.15.5-.26.78-.32.21-.05.43-.08.64-.08l.01.01zM12 16a4 4 0 1 1 0-8 4 4 0 1 1 0 8zm0-6c-1.1 0-2 .9-2 2s.9 2 2 2 2-.9 2-2-.9-2-2-2z"/></svg>