<svg xmlns="http://www.w3.org/2000/svg" viewBox="0 0 24 24" fill="#202e44" xmlns:v="https://vecta.io/nano"><path d="M2.879 3.879A3 3 0 0 1 5 3h7a3 3 0 0 1 3 3v2a1 1 0 1 1-2 0V6a1 1 0 0 0-1-1H5a1 1 0 0 0-1 1v12a1 1 0 0 0 1 1h7a1 1 0 0 0 1-1v-2a1 1 0 1 1 2 0v2a3 3 0 0 1-3 3H5a3 3 0 0 1-3-3V6a3 3 0 0 1 .879-2.121zm14.414 4.414a1 1 0 0 1 1.414 0l3 3a1 1 0 0 1 .291.64.93.93 0 0 1-.006.197.99.99 0 0 1-.236.526l-.054.057-2.995 2.995a1 1 0 0 1-1.414-1.414L18.586 13H9a1 1 0 1 1 0-2h9.586l-1.293-1.293a1 1 0 0 1 0-1.414z"/></svg>